# xmcd CD database file
#
# Track frame offsets:
#	150
#	6887
#	57927
#	77790
#	95285
#	148570
#	157445
#	168537
#	195875
#	256442
#	326690
#	348135
#
# Disc length: 4720 seconds
#
# Revision: 6
# Processed by: cddbd v1.5PL3 Copyright (c) Steve Scherf et al.
# Submitted via: CDex 1.50Beta3
#
DISCID=a1126e0c
DTITLE=Yo-Yo Ma - Silk Road Journey
DYEAR=2001
DGENRE=Classical
TTITLE0=オルティン・ドー
TTITLE1=ケルレンの伝説
TTITLE2=蘭の花
TTITLE3=弥渡山歌
TTITLE4=関月山
TTITLE5=家なきこじき
TTITLE6=ヨーイク
TTITLE7=アーヴァーゼ・ダシュティ
TTITLE8=ハビル・サジャヒ
TTITLE9=ネイシャブールの蒼い夜
TTITLE10=道歩む人
TTITLE11=シルクロード
EXTD=
EXTT0=
EXTT1=
EXTT2=
EXTT3=
EXTT4=
EXTT5=
EXTT6=
EXTT7=
EXTT8=
EXTT9=
EXTT10=
EXTT11=
PLAYORDER=
